<?xml version="1.0" encoding="UTF-8" standalone="no"?>
<!DOCTYPE svg PUBLIC "-//W3C//DTD SVG 1.1//EN" "http://www.w3.org/Graphics/SVG/1.1/DTD/svg11.dtd">
<svg xmlns="http://www.w3.org/2000/svg" version="1.1" viewBox="0.00 0.00 394.00 383.00">
<g stroke-width="2.00" fill="none" stroke-linecap="butt">
<path stroke="#809edd" vector-effect="non-scaling-stroke" d="
  M 196.69 383.00
  C 263.58 382.26 317.36 354.24 356.33 300.30
  Q 356.53 300.01 356.19 299.91
  Q 350.59 298.31 346.82 302.55
  C 320.08 332.65 285.15 351.65 244.76 355.04
  Q 174.98 360.89 124.13 315.26
  C 116.45 308.37 108.72 302.55 98.77 300.30
  Q 94.10 299.25 83.15 299.25
  Q 60.27 299.25 37.56 299.25
  A 0.39 0.39 0.0 0 0 37.24 299.86
  C 73.13 351.06 129.26 382.21 192.44 383.00"
/>
<path stroke="#feb38a" vector-effect="non-scaling-stroke" d="
  M 0.00 255.94
  L 10.24 256.17
  Q 10.82 256.18 10.84 255.60
  L 10.90 253.11
  Q 10.92 252.50 10.30 252.50
  L 5.05 252.50
  Q 4.60 252.50 4.61 252.05
  L 4.68 248.69
  Q 4.69 248.25 5.13 248.25
  L 10.00 248.25
  Q 10.50 248.25 10.50 247.75
  L 10.50 245.25
  Q 10.50 244.75 10.00 244.74
  L 5.25 244.71
  Q 4.55 244.70 4.56 244.00
  L 4.61 241.81
  Q 4.63 241.25 5.19 241.25
  L 10.10 241.25
  Q 10.77 241.25 10.69 240.59
  L 10.43 238.17
  Q 10.37 237.62 9.82 237.64
  L 0.00 237.92"
/>
<path stroke="#feb38a" vector-effect="non-scaling-stroke" d="
  M 169.50 27.39
  Q 222.27 29.00 263.10 61.94
  C 273.75 70.53 282.25 79.17 296.06 82.43
  Q 301.61 83.74 314.06 83.65
  Q 334.91 83.50 355.77 83.86
  A 0.37 0.36 73.7 0 0 356.08 83.29
  C 325.12 36.83 273.81 7.14 218.52 1.29
  C 146.79 -6.31 79.56 23.57 37.81 82.76
  Q 37.54 83.13 37.98 83.28
  Q 42.93 84.94 46.09 81.33
  C 78.04 44.79 120.83 25.91 169.50 27.39"
/>
<path stroke="#809edd" vector-effect="non-scaling-stroke" d="
  M 141.28 127.06
  C 141.29 120.02 146.42 116.53 152.93 119.04
  C 156.18 120.30 156.69 123.70 156.70 126.76
  Q 156.74 140.72 156.76 154.75
  Q 156.76 155.25 157.26 155.25
  L 199.01 155.25
  A 0.39 0.38 -88.4 0 0 199.39 154.88
  Q 199.95 142.05 198.68 129.27
  C 197.71 119.61 194.98 112.49 186.80 106.87
  C 176.93 100.08 165.88 97.71 153.59 97.15
  C 135.72 96.33 108.44 100.22 100.99 119.79
  C 98.69 125.83 98.60 134.28 98.55 141.25
  Q 98.40 163.91 98.57 186.56
  Q 98.64 195.42 100.67 203.99
  C 104.92 222.02 121.80 227.72 138.50 229.21
  C 161.03 231.23 195.92 227.36 198.47 198.24
  Q 199.66 184.67 199.54 176.78
  Q 199.53 176.25 199.00 176.25
  L 157.26 176.25
  Q 156.74 176.25 156.75 176.76
  Q 156.79 188.04 156.66 199.32
  C 156.56 207.64 150.35 211.07 143.38 206.67
  Q 142.94 206.39 142.74 205.91
  Q 141.30 202.48 141.29 198.75
  Q 141.22 162.91 141.28 127.06"
/>
<path stroke="#feb38a" vector-effect="non-scaling-stroke" d="
  M 45.85 201.75
  A 0.37 0.37 0.0 0 1 45.48 201.38
  L 45.49 173.87
  A 0.37 0.37 0.0 0 1 45.86 173.50
  L 71.88 173.50
  A 0.37 0.37 0.0 0 0 72.25 173.13
  L 72.25 149.62
  A 0.37 0.37 0.0 0 0 71.88 149.25
  L 45.87 149.25
  A 0.37 0.37 0.0 0 1 45.50 148.88
  L 45.50 125.37
  A 0.37 0.37 0.0 0 1 45.87 125.00
  L 73.88 125.00
  A 0.37 0.37 0.0 0 0 74.25 124.63
  L 74.25 99.87
  A 0.37 0.37 0.0 0 0 73.88 99.50
  L 3.12 99.50
  A 0.37 0.37 0.0 0 0 2.75 99.87
  L 2.75 226.64
  A 0.37 0.37 0.0 0 0 3.12 227.01
  L 76.37 227.00
  A 0.37 0.37 0.0 0 0 76.74 226.63
  L 76.78 202.12
  A 0.37 0.37 0.0 0 0 76.41 201.75
  L 45.85 201.75"
/>
<path stroke="#809edd" vector-effect="non-scaling-stroke" d="
  M 267.75 99.91
  A 0.32 0.32 0.0 0 0 267.43 99.59
  L 225.57 99.59
  A 0.32 0.32 0.0 0 0 225.25 99.91
  L 225.25 226.67
  A 0.32 0.32 0.0 0 0 225.57 226.99
  L 267.43 226.99
  A 0.32 0.32 0.0 0 0 267.75 226.67
  L 267.75 99.91"
/>
<path stroke="#809edd" vector-effect="non-scaling-stroke" d="
  M 368.94 161.18
  A 0.45 0.44 -41.2 0 1 369.00 160.30
  C 377.63 159.71 387.02 157.60 389.48 148.00
  Q 391.78 139.01 390.66 127.65
  Q 388.77 108.39 372.23 102.84
  C 365.70 100.65 354.25 99.81 347.41 99.80
  Q 321.87 99.75 296.04 99.72
  Q 295.50 99.72 295.50 100.26
  L 295.50 226.49
  Q 295.50 226.99 295.99 226.99
  L 337.74 227.02
  Q 338.26 227.02 338.26 226.51
  L 338.24 170.30
  Q 338.24 169.78 338.75 169.74
  C 351.56 168.64 351.45 175.71 351.45 186.00
  Q 351.47 206.23 351.52 226.51
  Q 351.53 227.00 352.02 227.00
  L 390.47 227.00
  Q 390.94 227.00 390.94 226.53
  Q 391.20 204.04 390.72 181.55
  C 390.42 167.46 381.03 163.59 368.94 161.18"
/>
<path stroke="#feb38a" vector-effect="non-scaling-stroke" d="
  M 3.66 235.54
  C 6.04 235.93 8.44 234.41 9.94 232.62
  Q 10.27 232.23 9.78 232.11
  Q 5.21 230.91 3.30 234.84
  Q 3.01 235.44 3.66 235.54"
/>
<path stroke="#feb38a" vector-effect="non-scaling-stroke" d="
  M 21.04 240.70
  C 23.54 239.51 23.66 241.67 23.77 243.33
  Q 23.81 244.00 24.48 244.00
  L 27.46 244.00
  Q 27.96 244.00 28.07 243.51
  C 29.88 235.49 16.42 234.99 16.02 241.75
  Q 15.89 243.89 16.03 250.94
  C 16.18 259.50 29.94 257.93 28.22 249.44
  Q 28.12 248.95 27.63 248.92
  L 24.45 248.71
  Q 23.75 248.66 23.75 249.37
  L 23.75 251.51
  Q 23.75 252.02 23.44 252.41
  Q 22.37 253.77 20.96 252.80
  Q 20.50 252.48 20.50 251.93
  L 20.50 241.55
  Q 20.50 240.95 21.04 240.70"
/>
<path stroke="#feb38a" vector-effect="non-scaling-stroke" d="
  M 45.7480 242.1907
  A 5.09 5.09 0.0 0 0 40.6669 237.0918
  L 38.6269 237.0882
  A 5.09 5.09 0.0 0 0 33.5280 242.1693
  L 33.5120 251.3693
  A 5.09 5.09 0.0 0 0 38.5931 256.4682
  L 40.6331 256.4718
  A 5.09 5.09 0.0 0 0 45.7320 251.3907
  L 45.7480 242.1907"
/>
<path stroke="#feb38a" vector-effect="non-scaling-stroke" d="
  M 55.68 252.50
  A 0.38 0.38 0.0 0 1 55.30 252.12
  L 55.34 238.08
  A 0.38 0.38 0.0 0 0 54.97 237.70
  L 51.14 237.64
  A 0.38 0.38 0.0 0 0 50.75 238.02
  L 50.75 255.87
  A 0.38 0.38 0.0 0 0 51.13 256.25
  L 60.62 256.15
  A 0.38 0.38 0.0 0 0 61.00 255.77
  L 61.00 252.88
  A 0.38 0.38 0.0 0 0 60.62 252.50
  L 55.68 252.50"
/>
<path stroke="#feb38a" vector-effect="non-scaling-stroke" d="
  M 70.33 252.50
  A 0.36 0.36 0.0 0 1 69.97 252.13
  L 70.05 248.60
  A 0.36 0.36 0.0 0 1 70.41 248.25
  L 75.63 248.25
  A 0.36 0.36 0.0 0 0 75.99 247.87
  L 75.81 245.16
  A 0.36 0.36 0.0 0 0 75.48 244.83
  L 70.32 244.44
  A 0.36 0.36 0.0 0 1 69.99 244.07
  L 70.02 241.60
  A 0.36 0.36 0.0 0 1 70.38 241.25
  L 75.64 241.25
  A 0.36 0.36 0.0 0 0 76.00 240.89
  L 76.00 237.86
  A 0.36 0.36 0.0 0 0 75.64 237.50
  L 66.07 237.50
  A 0.36 0.36 0.0 0 0 65.71 237.86
  L 65.73 255.79
  A 0.36 0.36 0.0 0 0 66.10 256.15
  L 75.90 255.94
  A 0.36 0.36 0.0 0 0 76.25 255.58
  L 76.25 252.86
  A 0.36 0.36 0.0 0 0 75.89 252.50
  L 70.33 252.50"
/>
<path stroke="#808ccf" vector-effect="non-scaling-stroke" d="
  M 186.92 250.60
  C 187.92 255.11 182.34 255.16 181.85 251.30
  Q 181.53 248.80 181.83 242.32
  C 181.98 239.07 187.15 237.98 187.00 242.43
  Q 186.98 243.00 187.55 243.00
  L 189.06 243.00
  Q 189.79 243.00 189.80 242.27
  C 189.86 236.22 180.08 235.25 179.18 242.53
  C 178.52 247.94 177.81 256.82 185.04 256.23
  C 188.39 255.96 190.03 253.55 189.85 250.32
  Q 189.81 249.73 189.22 249.75
  L 187.53 249.81
  Q 186.76 249.84 186.92 250.60"
/>
<path stroke="#808ccf" vector-effect="non-scaling-stroke" d="
  M 208.40 242.64
  A 5.08 5.08 0.0 0 0 203.32 237.56
  L 201.66 237.56
  A 5.08 5.08 0.0 0 0 196.58 242.64
  L 196.58 251.10
  A 5.08 5.08 0.0 0 0 201.66 256.18
  L 203.32 256.18
  A 5.08 5.08 0.0 0 0 208.40 251.10
  L 208.40 242.64"
/>
<path stroke="#808ccf" vector-effect="non-scaling-stroke" d="
  M 238.18 243.85
  C 235.21 241.92 237.95 237.89 241.15 239.97
  Q 241.61 240.27 241.67 240.82
  L 241.79 242.06
  Q 241.86 242.77 242.57 242.76
  L 244.31 242.73
  Q 244.99 242.72 244.85 242.06
  C 243.44 235.41 233.76 236.51 234.02 241.79
  C 234.30 247.45 242.76 247.41 242.23 252.30
  A 2.14 2.13 -83.7 0 1 239.87 254.20
  Q 236.56 253.83 236.74 250.51
  Q 236.77 250.00 236.25 250.00
  L 234.55 250.00
  Q 234.18 250.00 234.12 250.37
  C 232.90 258.32 246.12 257.99 245.13 250.43
  C 244.73 247.45 240.73 245.51 238.18 243.85"
/>
<path stroke="#808ccf" vector-effect="non-scaling-stroke" d="
  M 313.41 250.37
  C 314.65 255.34 308.30 254.87 308.26 251.23
  C 308.23 248.76 307.55 241.74 309.44 240.15
  C 311.45 238.45 313.59 239.87 313.49 242.43
  Q 313.47 243.00 314.05 243.00
  L 315.79 243.00
  Q 316.38 243.00 316.36 242.41
  C 316.18 236.59 308.31 235.94 306.25 240.02
  C 305.11 242.29 305.02 251.45 306.15 253.71
  C 308.45 258.31 316.58 256.82 316.30 250.32
  Q 316.27 249.73 315.69 249.74
  L 313.87 249.77
  Q 313.26 249.78 313.41 250.37"
/>
<path stroke="#808ccf" vector-effect="non-scaling-stroke" d="
  M 360.96 242.47
  A 4.94 4.94 0.0 0 0 356.02 237.53
  L 354.24 237.53
  A 4.94 4.94 0.0 0 0 349.30 242.47
  L 349.30 251.25
  A 4.94 4.94 0.0 0 0 354.24 256.19
  L 356.02 256.19
  A 4.94 4.94 0.0 0 0 360.96 251.25
  L 360.96 242.47"
/>
<path stroke="#808ccf" vector-effect="non-scaling-stroke" d="
  M 91.99 238.43
  L 91.99 255.09
  A 0.69 0.69 0.0 0 0 92.68 255.78
  L 98.52 255.78
  A 5.12 4.99 90.0 0 0 103.51 250.66
  L 103.51 242.86
  A 5.12 4.99 90.0 0 0 98.52 237.74
  L 92.68 237.74
  A 0.69 0.69 0.0 0 0 91.99 238.43"
/>
<path stroke="#808ccf" vector-effect="non-scaling-stroke" d="
  M 113.92 245.32
  A 0.41 0.41 0.0 0 1 113.50 244.91
  L 113.50 240.09
  A 0.41 0.41 0.0 0 1 113.93 239.68
  L 119.80 239.94
  A 0.41 0.41 0.0 0 0 120.23 239.61
  L 120.43 238.52
  A 0.41 0.41 0.0 0 0 120.03 238.03
  L 111.17 237.93
  A 0.41 0.41 0.0 0 0 110.75 238.34
  L 110.75 255.34
  A 0.41 0.41 0.0 0 0 111.16 255.75
  L 120.05 255.75
  A 0.41 0.41 0.0 0 0 120.46 255.36
  L 120.52 254.18
  A 0.41 0.41 0.0 0 0 120.11 253.75
  L 113.91 253.75
  A 0.41 0.41 0.0 0 1 113.50 253.34
  L 113.50 247.66
  A 0.41 0.41 0.0 0 1 113.91 247.25
  L 119.67 247.25
  A 0.41 0.41 0.0 0 0 120.07 246.72
  L 119.71 245.51
  A 0.41 0.41 0.0 0 0 119.31 245.22
  L 113.92 245.32"
/>
<path stroke="#808ccf" vector-effect="non-scaling-stroke" d="
  M 138.99 253.12
  L 139.03 238.62
  Q 139.03 237.96 138.39 237.89
  L 136.93 237.72
  Q 136.25 237.63 136.25 238.32
  L 136.25 255.00
  Q 136.25 255.75 137.00 255.75
  L 144.79 255.75
  Q 145.30 255.75 145.72 255.46
  Q 146.69 254.77 145.76 254.07
  Q 145.35 253.75 144.82 253.75
  L 139.62 253.75
  Q 138.98 253.75 138.99 253.12"
/>
<path stroke="#808ccf" vector-effect="non-scaling-stroke" d="
  M 154.84 251.32
  A 0.40 0.40 0.0 0 1 155.23 251.00
  L 159.60 251.00
  A 0.40 0.40 0.0 0 1 160.00 251.33
  L 160.67 255.42
  A 0.40 0.40 0.0 0 0 161.07 255.75
  L 163.37 255.75
  A 0.40 0.40 0.0 0 0 163.76 255.26
  L 159.63 238.03
  A 0.40 0.40 0.0 0 0 159.22 237.72
  L 155.67 237.84
  A 0.40 0.40 0.0 0 0 155.30 238.14
  L 150.97 255.25
  A 0.40 0.40 0.0 0 0 151.35 255.75
  L 153.64 255.75
  A 0.40 0.40 0.0 0 0 154.03 255.43
  L 154.84 251.32"
/>
<path stroke="#808ccf" vector-effect="non-scaling-stroke" d="
  M 218.15 241.43
  Q 218.43 241.68 218.58 242.11
  Q 220.91 248.79 223.93 255.23
  Q 224.18 255.75 224.75 255.75
  L 226.62 255.75
  Q 227.25 255.75 227.25 255.13
  L 227.25 238.51
  Q 227.25 237.97 226.70 237.98
  L 224.67 238.01
  Q 224.10 238.02 224.14 238.59
  L 225.00 251.21
  A 0.52 0.52 0.0 0 1 224.00 251.44
  L 219.01 238.55
  Q 218.81 238.04 218.27 238.00
  L 216.10 237.85
  Q 215.50 237.81 215.50 238.40
  L 215.50 255.12
  Q 215.50 255.75 216.13 255.75
  L 217.97 255.75
  Q 218.69 255.75 218.64 255.02
  L 217.62 241.69
  A 0.32 0.32 0.0 0 1 218.15 241.43"
/>
<path stroke="#808ccf" vector-effect="non-scaling-stroke" d="
  M 255.00 240.32
  L 255.00 255.25
  Q 255.00 255.75 255.50 255.75
  L 257.12 255.75
  Q 257.75 255.75 257.75 255.12
  L 257.75 240.51
  Q 257.75 240.02 258.24 240.01
  C 259.28 239.99 263.38 240.66 261.97 238.17
  Q 261.71 237.69 261.16 237.70
  L 251.05 237.90
  Q 250.21 237.92 250.46 238.72
  L 250.67 239.41
  Q 250.87 240.04 251.53 239.97
  L 254.32 239.70
  Q 255.00 239.64 255.00 240.32"
/>
<path stroke="#808ccf" vector-effect="non-scaling-stroke" d="
  M 276.79 246.29
  L 278.20 245.38
  Q 278.65 245.09 278.89 244.61
  C 282.70 236.97 272.09 237.75 268.40 237.75
  Q 267.96 237.75 267.96 238.19
  L 267.98 254.86
  A 0.89 0.88 -90.0 0 0 268.86 255.75
  L 270.13 255.75
  Q 270.75 255.75 270.75 255.12
  L 270.75 248.22
  Q 270.75 247.64 271.33 247.58
  Q 273.91 247.29 275.88 248.60
  Q 276.39 248.94 276.43 249.55
  L 276.80 255.05
  Q 276.85 255.75 277.55 255.75
  L 279.24 255.75
  Q 279.73 255.75 279.69 255.26
  L 279.14 248.77
  Q 279.10 248.32 278.83 247.97
  Q 278.14 247.09 276.98 247.01
  Q 275.80 246.94 276.79 246.29"
/>
<path stroke="#808ccf" vector-effect="non-scaling-stroke" d="
  M 294.33 253.67
  C 291.00 254.98 289.55 253.11 289.50 249.96
  Q 289.41 244.16 289.59 238.34
  Q 289.61 237.75 289.02 237.75
  L 287.45 237.75
  Q 286.75 237.75 286.75 238.45
  C 286.76 244.38 283.69 258.25 294.53 255.96
  C 297.41 255.34 298.31 254.13 298.25 251.09
  Q 298.14 244.76 298.41 238.40
  Q 298.43 237.75 297.78 237.75
  L 296.12 237.75
  Q 295.50 237.75 295.50 238.37
  L 295.50 251.96
  A 1.85 1.83 -10.8 0 1 294.33 253.67"
/>
<path stroke="#808ccf" vector-effect="non-scaling-stroke" d="
  M 325.81 240.01
  A 0.27 0.27 0.0 0 1 326.00 240.27
  L 326.00 255.13
  Q 326.00 255.75 326.63 255.75
  L 328.50 255.75
  Q 329.00 255.75 329.00 255.25
  L 329.00 240.48
  Q 329.00 239.95 329.52 239.95
  L 332.68 239.92
  Q 333.27 239.91 333.26 239.32
  L 333.23 238.24
  Q 333.21 237.70 332.68 237.71
  L 322.27 237.96
  Q 321.75 237.97 321.75 238.49
  L 321.75 239.50
  Q 321.75 240.43 322.62 240.11
  Q 324.24 239.52 325.81 240.01"
/>
<path stroke="#808ccf" vector-effect="non-scaling-stroke" d="
  M 342.02 238.27
  A 0.46 0.46 0.0 0 0 341.56 237.81
  L 339.68 237.81
  A 0.46 0.46 0.0 0 0 339.22 238.27
  L 339.22 255.25
  A 0.46 0.46 0.0 0 0 339.68 255.71
  L 341.56 255.71
  A 0.46 0.46 0.0 0 0 342.02 255.25
  L 342.02 238.27"
/>
<path stroke="#808ccf" vector-effect="non-scaling-stroke" d="
  M 370.42 242.06
  A 0.51 0.50 35.1 0 1 371.41 241.89
  C 372.15 244.23 375.46 254.71 377.18 255.61
  Q 378.16 256.12 379.40 255.49
  A 0.71 0.69 -14.2 0 0 379.78 254.87
  L 379.74 238.37
  Q 379.73 237.75 379.12 237.75
  L 377.55 237.75
  Q 376.85 237.75 376.90 238.45
  L 377.66 251.44
  A 0.53 0.53 0.0 0 1 376.62 251.64
  Q 374.63 245.61 372.03 239.47
  C 371.37 237.91 370.43 237.44 368.81 237.79
  Q 368.25 237.92 368.25 238.49
  L 368.25 255.12
  Q 368.25 255.75 368.87 255.75
  L 370.42 255.75
  Q 371.15 255.75 371.12 255.02
  L 370.42 242.06"
/>
<path stroke="#808ccf" vector-effect="non-scaling-stroke" d="
  M 390.76 256.82
  L 389.45 258.51
  Q 388.58 259.64 389.88 259.05
  Q 390.91 258.58 391.59 257.69
  Q 391.83 257.37 391.79 256.97
  L 391.43 253.60
  Q 391.34 252.84 390.60 253.03
  L 389.57 253.29
  Q 389.12 253.40 389.03 253.84
  Q 388.66 255.69 390.44 256.01
  Q 391.27 256.15 390.76 256.82"
/>
<path stroke="#808ccf" vector-effect="non-scaling-stroke" d="
  M 319.01 262.44
  C 317.28 261.63 315.89 263.27 315.27 264.59
  A 0.63 0.63 0.0 0 0 316.22 265.36
  L 319.08 263.18
  Q 319.65 262.75 319.01 262.44"
/>
<path stroke="#808ccf" vector-effect="non-scaling-stroke" d="
  M 31.75 272.16
  C 30.52 269.74 35.53 266.97 36.69 272.01
  Q 36.80 272.50 37.30 272.50
  L 38.73 272.50
  Q 39.30 272.50 39.31 271.93
  C 39.43 266.51 31.71 265.70 29.34 269.35
  C 25.14 275.82 39.11 277.90 36.94 282.18
  C 35.42 285.18 30.71 284.10 31.73 280.39
  Q 31.91 279.75 31.24 279.75
  L 29.30 279.75
  Q 28.81 279.75 28.76 280.24
  Q 28.37 284.46 32.16 285.62
  C 38.79 287.64 43.14 280.10 36.85 276.12
  C 35.40 275.20 32.52 273.68 31.75 272.16"
/>
<path stroke="#808ccf" vector-effect="non-scaling-stroke" d="
  M 117.76 270.13
  C 119.32 268.36 122.37 269.10 122.26 271.82
  Q 122.23 272.46 122.87 272.47
  L 124.26 272.51
  Q 124.89 272.53 124.93 271.90
  C 125.17 267.78 120.65 266.43 117.54 267.51
  C 113.89 268.78 113.37 272.82 116.25 275.26
  C 117.37 276.21 122.99 278.96 122.75 281.41
  C 122.39 285.16 116.59 284.64 117.27 280.34
  Q 117.36 279.75 116.77 279.75
  L 115.04 279.75
  Q 114.61 279.75 114.55 280.18
  Q 113.96 284.88 118.49 285.74
  C 124.91 286.96 128.52 280.05 122.69 276.30
  Q 120.43 274.84 118.15 273.28
  A 2.12 2.12 0.0 0 1 117.76 270.13"
/>
<path stroke="#808ccf" vector-effect="non-scaling-stroke" d="
  M 180.50 270.15
  L 181.06 272.09
  Q 181.17 272.50 181.60 272.50
  L 183.24 272.50
  Q 183.76 272.50 183.74 271.99
  Q 183.61 267.45 179.00 267.23
  C 173.15 266.96 173.04 270.97 172.75 275.77
  C 172.57 278.79 172.69 284.45 175.82 285.38
  Q 183.08 287.53 183.91 280.46
  Q 183.99 279.75 183.28 279.75
  L 181.54 279.75
  Q 180.90 279.75 180.98 280.38
  C 181.23 282.51 179.78 284.75 177.45 283.57
  C 175.21 282.43 173.63 267.78 179.75 269.42
  Q 180.33 269.57 180.50 270.15"
/>
<path stroke="#808ccf" vector-effect="non-scaling-stroke" d="
  M 247.04 269.93
  C 248.89 268.76 251.71 268.88 251.51 271.74
  Q 251.45 272.50 252.22 272.50
  L 253.78 272.50
  Q 254.49 272.50 254.42 271.79
  C 253.81 266.06 245.36 265.61 243.93 270.31
  C 242.26 275.83 249.64 276.61 251.55 279.72
  C 254.28 284.16 245.73 285.96 246.53 280.34
  Q 246.61 279.75 246.01 279.75
  L 244.28 279.75
  Q 243.83 279.75 243.78 280.20
  C 243.12 286.79 252.47 287.84 254.44 282.72
  C 256.44 277.51 250.10 275.32 246.87 272.63
  A 1.68 1.67 48.7 0 1 247.04 269.93"
/>
<path stroke="#808ccf" vector-effect="non-scaling-stroke" d="
  M 327.11 271.27
  C 327.53 268.30 332.64 268.71 331.95 271.67
  Q 331.78 272.39 332.52 272.43
  L 334.39 272.52
  Q 335.05 272.56 334.96 271.90
  C 334.03 264.84 323.83 266.29 324.30 271.76
  C 324.79 277.37 333.90 277.37 332.29 282.52
  Q 332.14 283.00 331.71 283.26
  C 329.47 284.56 326.27 283.25 327.15 280.34
  Q 327.33 279.75 326.71 279.75
  L 324.81 279.75
  Q 324.41 279.75 324.36 280.14
  C 323.33 287.86 335.88 287.66 335.35 280.61
  C 334.98 275.74 326.69 274.31 327.11 271.27"
/>
<path stroke="#808ccf" vector-effect="non-scaling-stroke" d="
  M 0.89 267.95
  L 0.93 285.21
  A 0.27 0.27 0.0 0 0 1.20 285.48
  L 7.52 285.47
  A 5.35 4.95 89.9 0 0 12.46 280.11
  L 12.44 273.01
  A 5.35 4.95 89.9 0 0 7.48 267.67
  L 1.16 267.68
  A 0.27 0.27 0.0 0 0 0.89 267.95"
/>
<path stroke="#808ccf" vector-effect="non-scaling-stroke" d="
  M 19.15 269.85
  A 0.34 0.34 0.0 0 1 19.49 269.50
  L 25.66 269.50
  A 0.34 0.34 0.0 0 0 26.00 269.16
  L 26.00 268.09
  A 0.34 0.34 0.0 0 0 25.66 267.75
  L 16.59 267.75
  A 0.34 0.34 0.0 0 0 16.25 268.09
  L 16.25 285.16
  A 0.34 0.34 0.0 0 0 16.59 285.50
  L 25.72 285.50
  A 0.34 0.34 0.0 0 0 26.06 285.11
  L 25.87 283.79
  A 0.34 0.34 0.0 0 0 25.53 283.50
  L 19.45 283.50
  A 0.34 0.34 0.0 0 1 19.11 283.15
  L 19.31 277.33
  A 0.34 0.34 0.0 0 1 19.65 277.00
  L 25.25 277.00
  A 0.34 0.34 0.0 0 0 25.58 276.59
  L 25.32 275.27
  A 0.34 0.34 0.0 0 0 24.99 275.00
  L 19.63 275.00
  A 0.34 0.34 0.0 0 1 19.29 274.67
  L 19.15 269.85"
/>
<path stroke="#808ccf" vector-effect="non-scaling-stroke" d="
  M 52.50 268.01
  A 0.26 0.26 0.0 0 0 52.24 267.75
  L 49.96 267.75
  A 0.26 0.26 0.0 0 0 49.70 268.01
  L 49.70 285.21
  A 0.26 0.26 0.0 0 0 49.96 285.47
  L 52.24 285.47
  A 0.26 0.26 0.0 0 0 52.50 285.21
  L 52.50 268.01"
/>
<path stroke="#808ccf" vector-effect="non-scaling-stroke" d="
  M 58.72 271.40
  A 0.42 0.42 0.0 0 1 59.54 271.24
  Q 61.75 277.74 64.42 283.99
  C 65.11 285.60 66.17 285.98 67.76 285.42
  Q 68.15 285.29 68.15 284.87
  L 68.02 268.13
  Q 68.02 267.75 67.63 267.75
  L 65.70 267.75
  Q 65.15 267.75 65.19 268.30
  L 66.01 281.23
  A 0.46 0.46 0.0 0 1 65.12 281.43
  L 60.01 268.31
  Q 59.79 267.75 59.19 267.75
  L 57.07 267.75
  Q 56.65 267.75 56.65 268.18
  L 56.49 284.95
  Q 56.48 285.47 57.01 285.48
  L 58.87 285.51
  Q 59.51 285.52 59.48 284.88
  L 58.72 271.40"
/>
<path stroke="#808ccf" vector-effect="non-scaling-stroke" d="
  M 75.20 269.85
  A 0.34 0.34 0.0 0 1 75.54 269.50
  L 81.66 269.50
  A 0.34 0.34 0.0 0 0 82.00 269.16
  L 82.00 268.09
  A 0.34 0.34 0.0 0 0 81.66 267.75
  L 72.81 267.75
  A 0.34 0.34 0.0 0 0 72.47 268.09
  L 72.47 285.16
  A 0.34 0.34 0.0 0 0 72.81 285.50
  L 74.91 285.50
  A 0.34 0.34 0.0 0 0 75.25 285.16
  L 75.25 277.34
  A 0.34 0.34 0.0 0 1 75.59 277.00
  L 81.52 277.00
  A 0.34 0.34 0.0 0 0 81.84 276.55
  L 81.41 275.23
  A 0.34 0.34 0.0 0 0 81.08 275.00
  L 75.61 275.00
  A 0.34 0.34 0.0 0 1 75.27 274.67
  L 75.20 269.85"
/>
<path stroke="#808ccf" vector-effect="non-scaling-stroke" d="
  M 93.83 275.82
  C 95.60 275.14 96.59 274.20 96.65 272.19
  C 96.84 266.34 89.27 267.62 85.47 267.80
  Q 85.00 267.82 85.00 268.30
  L 85.00 284.90
  Q 85.00 285.56 85.65 285.52
  L 87.40 285.43
  Q 87.88 285.41 87.87 284.93
  L 87.70 278.39
  Q 87.69 277.93 88.13 277.78
  C 94.50 275.53 93.64 281.09 93.77 284.84
  Q 93.79 285.50 94.45 285.50
  L 96.44 285.50
  Q 97.06 285.50 96.91 284.90
  C 96.22 282.00 97.71 277.39 93.89 276.59
  Q 92.56 276.31 93.83 275.82"
/>
<path stroke="#808ccf" vector-effect="non-scaling-stroke" d="
  M 103.14 281.07
  A 0.40 0.40 0.0 0 1 103.53 280.75
  L 108.00 280.75
  A 0.40 0.40 0.0 0 1 108.39 281.09
  L 109.03 285.16
  A 0.40 0.40 0.0 0 0 109.42 285.50
  L 111.77 285.50
  A 0.40 0.40 0.0 0 0 112.16 285.01
  L 108.03 268.06
  A 0.40 0.40 0.0 0 0 107.65 267.75
  L 104.06 267.75
  A 0.40 0.40 0.0 0 0 103.67 268.05
  L 99.35 285.00
  A 0.40 0.40 0.0 0 0 99.73 285.50
  L 101.93 285.50
  A 0.40 0.40 0.0 0 0 102.32 285.18
  L 103.14 281.07"
/>
<path stroke="#808ccf" vector-effect="non-scaling-stroke" d="
  M 131.64 269.44
  A 0.34 0.34 0.0 0 1 132.00 269.78
  L 132.00 285.16
  A 0.34 0.34 0.0 0 0 132.34 285.50
  L 134.49 285.50
  A 0.34 0.34 0.0 0 0 134.83 285.16
  L 134.71 269.84
  A 0.34 0.34 0.0 0 1 135.05 269.50
  L 138.91 269.50
  A 0.34 0.34 0.0 0 0 139.25 269.16
  L 139.25 268.09
  A 0.34 0.34 0.0 0 0 138.91 267.75
  L 128.07 267.75
  A 0.34 0.34 0.0 0 0 127.73 268.10
  L 127.78 269.32
  A 0.34 0.34 0.0 0 0 128.14 269.65
  L 131.64 269.44"
/>
<path stroke="#808ccf" vector-effect="non-scaling-stroke" d="
  M 150.49 275.75
  Q 151.59 275.52 152.43 274.75
  Q 152.80 274.41 153.00 273.95
  C 156.39 266.36 145.63 267.74 142.25 267.76
  Q 141.75 267.76 141.75 268.26
  L 141.75 284.75
  Q 141.75 285.50 142.50 285.50
  L 144.10 285.50
  Q 144.70 285.50 144.67 284.90
  L 144.44 278.31
  A 0.88 0.88 0.0 0 1 145.17 277.41
  Q 147.79 276.95 149.88 278.33
  Q 150.42 278.69 150.43 279.34
  L 150.53 284.90
  Q 150.55 285.50 151.15 285.50
  L 153.23 285.50
  Q 153.94 285.50 153.75 284.82
  Q 152.99 282.08 153.28 279.22
  Q 153.34 278.68 153.06 278.22
  Q 152.25 276.84 150.67 276.62
  Q 148.06 276.25 150.49 275.75"
/>
<path stroke="#808ccf" vector-effect="non-scaling-stroke" d="
  M 165.82 282.76
  Q 164.14 284.37 161.72 283.53
  A 2.22 2.21 -80.3 0 1 160.24 281.44
  L 160.27 268.35
  Q 160.27 267.75 159.67 267.75
  L 158.02 267.75
  Q 157.50 267.75 157.50 268.26
  Q 157.48 274.76 157.57 281.25
  C 157.66 287.64 169.43 287.89 169.01 280.49
  Q 168.79 276.60 169.14 268.39
  Q 169.17 267.75 168.53 267.75
  L 166.75 267.75
  Q 166.25 267.75 166.25 268.25
  L 166.25 281.74
  A 1.43 1.42 -22.2 0 1 165.82 282.76"
/>
<path stroke="#808ccf" vector-effect="non-scaling-stroke" d="
  M 190.28 270.18
  L 190.24 284.87
  Q 190.23 285.50 190.87 285.50
  L 192.67 285.50
  Q 193.09 285.50 193.09 285.08
  L 192.96 270.19
  Q 192.95 269.52 193.62 269.52
  L 196.88 269.49
  Q 197.50 269.49 197.50 268.87
  L 197.50 268.38
  Q 197.50 267.75 196.87 267.75
  L 186.68 267.75
  Q 186.20 267.75 186.04 268.20
  C 185.38 270.17 188.72 269.42 189.71 269.53
  Q 190.28 269.60 190.28 270.18"
/>
<path stroke="#808ccf" vector-effect="non-scaling-stroke" d="
  M 208.93 268.55
  C 208.97 271.13 211.01 287.01 204.44 283.54
  C 201.75 282.12 202.75 271.02 202.88 268.39
  Q 202.91 267.75 202.28 267.75
  L 200.71 267.75
  Q 200.03 267.75 200.08 268.42
  C 200.34 272.37 199.36 279.66 200.57 282.97
  C 202.12 287.20 211.03 286.72 211.50 282.49
  Q 211.83 279.60 211.63 268.17
  Q 211.63 267.75 211.20 267.75
  L 209.72 267.75
  Q 208.92 267.75 208.93 268.55"
/>
<path stroke="#808ccf" vector-effect="non-scaling-stroke" d="
  M 224.62 275.74
  L 226.21 274.96
  Q 226.65 274.75 226.83 274.30
  C 230.12 266.21 220.08 267.73 216.15 267.76
  Q 215.73 267.76 215.73 268.18
  L 215.73 284.99
  Q 215.73 285.50 216.24 285.50
  L 218.05 285.50
  Q 218.59 285.50 218.58 284.96
  L 218.46 277.81
  Q 218.45 277.20 219.06 277.22
  C 225.85 277.45 224.35 280.16 224.53 285.00
  Q 224.55 285.50 225.05 285.50
  L 227.16 285.50
  Q 227.55 285.50 227.53 285.11
  L 227.11 278.34
  Q 227.08 277.79 226.60 277.54
  L 224.61 276.46
  Q 223.91 276.08 224.62 275.74"
/>
<path stroke="#808ccf" vector-effect="non-scaling-stroke" d="
  M 234.63 277.00
  L 239.72 277.00
  Q 240.19 277.00 240.29 276.54
  L 240.45 275.85
  Q 240.65 275.00 239.78 275.00
  L 234.50 275.00
  Q 234.00 275.00 234.00 274.50
  L 234.00 270.24
  Q 234.00 269.70 234.53 269.62
  C 235.96 269.40 241.64 270.55 240.95 268.13
  Q 240.84 267.75 240.44 267.75
  L 231.78 267.75
  Q 231.31 267.75 231.31 268.22
  L 231.24 284.99
  A 0.51 0.51 0.0 0 0 231.75 285.50
  L 240.38 285.50
  Q 241.00 285.50 241.00 284.87
  L 241.00 284.13
  Q 241.00 283.50 240.37 283.50
  L 234.50 283.50
  Q 234.00 283.50 234.00 283.00
  L 234.00 277.62
  Q 234.00 277.00 234.63 277.00"
/>
<path stroke="#808ccf" vector-effect="non-scaling-stroke" d="
  M 267.84 277.06
  C 269.15 276.93 274.35 277.91 273.37 275.43
  Q 273.20 275.00 272.74 275.00
  L 267.75 275.00
  Q 267.25 275.00 267.25 274.50
  L 267.25 270.12
  Q 267.25 269.49 267.88 269.50
  L 273.46 269.51
  Q 274.00 269.51 274.00 268.97
  L 274.00 268.37
  Q 274.00 267.75 273.37 267.75
  L 265.00 267.75
  Q 264.50 267.75 264.50 268.25
  L 264.50 285.00
  Q 264.50 285.50 265.00 285.50
  L 273.65 285.50
  Q 274.25 285.50 274.16 284.91
  L 274.02 283.97
  Q 273.95 283.50 273.47 283.50
  L 267.75 283.50
  Q 267.25 283.50 267.25 283.00
  L 267.25 277.72
  Q 267.25 277.12 267.84 277.06"
/>
<path stroke="#808ccf" vector-effect="non-scaling-stroke" d="
  M 280.11 269.45
  A 0.41 0.41 0.0 0 1 280.54 269.86
  L 280.41 285.09
  A 0.41 0.41 0.0 0 0 280.82 285.50
  L 282.86 285.50
  A 0.41 0.41 0.0 0 0 283.27 285.09
  L 283.20 269.86
  A 0.41 0.41 0.0 0 1 283.64 269.45
  L 286.97 269.64
  A 0.41 0.41 0.0 0 0 287.40 269.28
  L 287.55 268.22
  A 0.41 0.41 0.0 0 0 287.14 267.75
  L 276.36 267.75
  A 0.41 0.41 0.0 0 0 275.95 268.22
  L 276.10 269.28
  A 0.41 0.41 0.0 0 0 276.53 269.63
  L 280.11 269.45"
/>
<path stroke="#808ccf" vector-effect="non-scaling-stroke" d="
  M 305.31 275.72
  L 306.78 274.98
  Q 307.22 274.76 307.39 274.29
  C 310.39 266.15 300.89 267.76 296.75 267.75
  Q 296.26 267.75 296.26 268.24
  L 296.22 284.86
  Q 296.22 285.50 296.86 285.50
  L 298.56 285.50
  Q 299.10 285.50 299.09 284.95
  L 298.96 278.33
  Q 298.95 277.86 299.40 277.71
  Q 302.22 276.81 304.40 278.32
  Q 304.85 278.64 304.87 279.19
  L 305.06 284.75
  Q 305.09 285.47 305.81 285.48
  L 307.65 285.51
  Q 308.05 285.51 308.03 285.11
  L 307.61 278.30
  Q 307.58 277.75 307.09 277.49
  L 305.31 276.55
  Q 304.51 276.13 305.31 275.72"
/>
<path stroke="#808ccf" vector-effect="non-scaling-stroke" d="
  M 314.50 274.63
  L 314.50 270.06
  Q 314.50 269.58 314.98 269.55
  C 316.09 269.49 322.13 270.27 321.46 268.21
  Q 321.31 267.75 320.82 267.75
  L 312.37 267.75
  Q 311.98 267.75 311.98 268.13
  L 311.89 284.94
  A 0.55 0.55 0.0 0 0 312.44 285.50
  L 320.88 285.50
  Q 321.50 285.50 321.50 284.87
  L 321.50 284.12
  Q 321.50 283.50 320.87 283.50
  L 315.12 283.50
  Q 314.50 283.50 314.50 282.87
  L 314.50 277.62
  Q 314.50 277.00 315.13 277.00
  L 320.40 277.00
  Q 321.15 277.00 320.98 276.27
  L 320.81 275.51
  Q 320.66 274.89 320.02 274.93
  L 315.13 275.22
  Q 314.50 275.26 314.50 274.63"
/>
<path stroke="#808ccf" vector-effect="non-scaling-stroke" d="
  M 341.79 274.59
  L 341.66 270.15
  Q 341.64 269.46 342.34 269.47
  L 347.69 269.58
  Q 348.21 269.59 348.34 269.08
  L 348.53 268.34
  Q 348.69 267.75 348.08 267.75
  L 339.44 267.75
  Q 338.89 267.75 338.89 268.31
  L 338.99 284.75
  A 0.76 0.75 0.0 0 0 339.75 285.50
  L 347.62 285.50
  Q 348.25 285.50 348.25 284.87
  L 348.25 284.00
  Q 348.25 283.50 347.75 283.50
  L 342.00 283.50
  Q 341.51 283.50 341.53 283.01
  L 341.76 277.61
  Q 341.79 277.00 342.40 277.00
  L 347.28 277.00
  Q 347.81 277.00 347.97 276.50
  C 348.72 274.22 343.41 274.99 342.40 275.12
  Q 341.81 275.19 341.79 274.59"
/>
<path stroke="#808ccf" vector-effect="non-scaling-stroke" d="
  M 354.20 281.03
  A 0.34 0.34 0.0 0 1 354.53 280.75
  L 359.08 280.75
  A 0.34 0.34 0.0 0 1 359.42 281.04
  L 360.08 285.21
  A 0.34 0.34 0.0 0 0 360.42 285.50
  L 362.93 285.50
  A 0.34 0.34 0.0 0 0 363.26 285.08
  L 359.07 268.01
  A 0.34 0.34 0.0 0 0 358.74 267.75
  L 355.03 267.75
  A 0.34 0.34 0.0 0 0 354.70 268.01
  L 350.35 285.08
  A 0.34 0.34 0.0 0 0 350.68 285.50
  L 353.09 285.50
  A 0.34 0.34 0.0 0 0 353.42 285.22
  L 354.20 281.03"
/>
<path stroke="#808ccf" vector-effect="non-scaling-stroke" d="
  M 373.54 283.39
  C 366.45 286.49 368.72 271.23 368.89 268.20
  Q 368.91 267.75 368.46 267.75
  L 366.47 267.75
  Q 365.85 267.75 365.87 268.37
  Q 366.22 277.20 366.00 280.25
  C 365.44 288.08 377.52 287.55 377.51 281.24
  Q 377.49 272.62 377.68 268.23
  Q 377.71 267.75 377.22 267.75
  L 375.33 267.75
  Q 374.73 267.75 374.73 268.35
  L 374.76 281.52
  A 2.05 2.04 -12.0 0 1 373.54 283.39"
/>
<path stroke="#808ccf" vector-effect="non-scaling-stroke" d="
  M 387.13 273.99
  A 0.33 0.33 0.0 0 1 386.52 274.01
  L 383.87 267.95
  A 0.33 0.33 0.0 0 0 383.56 267.75
  L 381.05 267.75
  A 0.33 0.33 0.0 0 0 380.75 268.23
  L 384.96 276.25
  A 0.33 0.33 0.0 0 1 384.96 276.55
  L 380.49 285.02
  A 0.33 0.33 0.0 0 0 380.78 285.50
  L 383.21 285.50
  A 0.33 0.33 0.0 0 0 383.52 285.30
  L 386.40 278.68
  A 0.33 0.33 0.0 0 1 387.01 278.70
  L 389.57 285.29
  A 0.33 0.33 0.0 0 0 389.88 285.50
  L 392.62 285.50
  A 0.33 0.33 0.0 0 0 392.91 285.01
  L 388.31 276.63
  A 0.33 0.33 0.0 0 1 388.30 276.31
  L 392.59 268.23
  A 0.33 0.33 0.0 0 0 392.30 267.75
  L 389.70 267.75
  A 0.33 0.33 0.0 0 0 389.39 267.96
  L 387.13 273.99"
/>
<path stroke="#809edd" vector-effect="non-scaling-stroke" d="
  M 338.17 121.73
  L 338.31 149.49
  A 0.31 0.31 0.0 0 0 338.62 149.80
  L 342.96 149.78
  A 8.57 8.44 -0.3 0 0 351.49 141.30
  L 351.43 129.80
  A 8.57 8.44 -0.3 0 0 342.82 121.40
  L 338.48 121.42
  A 0.31 0.31 0.0 0 0 338.17 121.73"
/>
<path stroke="#feb38a" vector-effect="non-scaling-stroke" d="
  M 41.25 242.02
  A 1.52 1.52 0.0 0 0 39.73 240.50
  L 39.53 240.50
  A 1.52 1.52 0.0 0 0 38.01 242.02
  L 38.01 251.50
  A 1.52 1.52 0.0 0 0 39.53 253.02
  L 39.73 253.02
  A 1.52 1.52 0.0 0 0 41.25 251.50
  L 41.25 242.02"
/>
<path stroke="#808ccf" vector-effect="non-scaling-stroke" d="
  M 205.48 242.38
  A 2.84 2.84 0.0 0 0 202.64 239.54
  L 202.36 239.54
  A 2.84 2.84 0.0 0 0 199.52 242.38
  L 199.52 251.18
  A 2.84 2.84 0.0 0 0 202.36 254.02
  L 202.64 254.02
  A 2.84 2.84 0.0 0 0 205.48 251.18
  L 205.48 242.38"
/>
<path stroke="#808ccf" vector-effect="non-scaling-stroke" d="
  M 358.1572 242.4741
  A 2.91 2.91 0.0 0 0 355.2320 239.5794
  L 354.9520 239.5808
  A 2.91 2.91 0.0 0 0 352.0573 242.5060
  L 352.1028 251.2059
  A 2.91 2.91 0.0 0 0 355.0280 254.1006
  L 355.3080 254.0992
  A 2.91 2.91 0.0 0 0 358.2027 251.1740
  L 358.1572 242.4741"
/>
<path stroke="#808ccf" vector-effect="non-scaling-stroke" d="
  M 94.76 240.54
  L 94.70 253.14
  A 0.59 0.59 0.0 0 0 95.28 253.74
  L 97.56 253.75
  A 3.49 3.17 -89.7 0 0 100.75 250.28
  L 100.79 243.48
  A 3.49 3.17 -89.7 0 0 97.64 239.97
  L 95.36 239.96
  A 0.59 0.59 0.0 0 0 94.76 240.54"
/>
<path stroke="#808ccf" vector-effect="non-scaling-stroke" d="
  M 159.35 248.32
  C 159.14 247.11 158.19 239.41 157.34 239.47
  Q 156.92 239.50 156.85 239.91
  L 155.44 248.48
  Q 155.36 249.00 155.89 249.00
  L 158.78 249.00
  Q 159.47 249.00 159.35 248.32"
/>
<path stroke="#808ccf" vector-effect="non-scaling-stroke" d="
  M 270.74 240.47
  L 270.60 245.09
  A 0.69 0.69 0.0 0 0 271.27 245.80
  L 273.81 245.88
  A 2.84 2.63 -88.2 0 0 276.52 243.12
  L 276.53 242.80
  A 2.84 2.63 -88.2 0 0 273.99 239.88
  L 271.46 239.80
  A 0.69 0.69 0.0 0 0 270.74 240.47"
/>
<path stroke="#808ccf" vector-effect="non-scaling-stroke" d="
  M 3.70 269.92
  L 3.64 283.08
  A 0.46 0.46 0.0 0 0 4.09 283.55
  L 6.02 283.56
  A 3.80 3.51 -89.7 0 0 9.55 279.78
  L 9.59 273.30
  A 3.80 3.51 -89.7 0 0 6.10 269.48
  L 4.17 269.47
  A 0.46 0.46 0.0 0 0 3.70 269.92"
/>
<path stroke="#808ccf" vector-effect="non-scaling-stroke" d="
  M 87.75 269.86
  L 87.75 275.08
  A 0.40 0.40 0.0 0 0 88.15 275.48
  L 90.74 275.48
  A 3.01 2.87 0.0 0 0 93.75 272.61
  L 93.75 272.33
  A 3.01 2.87 0.0 0 0 90.74 269.46
  L 88.15 269.46
  A 0.40 0.40 0.0 0 0 87.75 269.86"
/>
<path stroke="#808ccf" vector-effect="non-scaling-stroke" d="
  M 103.80 278.21
  A 0.44 0.44 0.0 0 0 104.22 278.73
  L 107.26 278.77
  A 0.44 0.44 0.0 0 0 107.70 278.26
  L 106.29 269.40
  A 0.44 0.44 0.0 0 0 105.42 269.39
  L 103.80 278.21"
/>
<path stroke="#808ccf" vector-effect="non-scaling-stroke" d="
  M 144.48 270.28
  L 144.48 274.70
  A 0.81 0.81 0.0 0 0 145.30 275.50
  L 147.70 275.50
  A 2.83 2.74 -0.1 0 0 150.52 272.75
  L 150.52 272.19
  A 2.83 2.74 -0.1 0 0 147.68 269.46
  L 145.28 269.46
  A 0.81 0.81 0.0 0 0 144.48 270.28"
/>
<path stroke="#808ccf" vector-effect="non-scaling-stroke" d="
  M 218.49 269.89
  L 218.49 275.11
  A 0.40 0.40 0.0 0 0 218.90 275.50
  L 221.72 275.50
  A 2.87 2.80 89.9 0 0 224.51 272.62
  L 224.51 272.34
  A 2.87 2.80 89.9 0 0 221.70 269.48
  L 218.88 269.48
  A 0.40 0.40 0.0 0 0 218.49 269.89"
/>
<path stroke="#808ccf" vector-effect="non-scaling-stroke" d="
  M 298.99 269.88
  L 298.95 275.08
  A 0.42 0.42 0.0 0 0 299.37 275.50
  L 302.20 275.52
  A 2.79 2.69 0.4 0 0 305.01 272.85
  L 305.01 272.19
  A 2.79 2.69 0.4 0 0 302.24 269.48
  L 299.41 269.46
  A 0.42 0.42 0.0 0 0 298.99 269.88"
/>
<path stroke="#808ccf" vector-effect="non-scaling-stroke" d="
  M 354.88 278.21
  A 0.44 0.44 0.0 0 0 355.31 278.73
  L 358.28 278.77
  A 0.44 0.44 0.0 0 0 358.72 278.26
  L 357.36 269.23
  A 0.44 0.44 0.0 0 0 356.49 269.21
  L 354.88 278.21"
/>
</g>

<path fill="#fc6715" d="
  M 169.50 27.39
  C 120.83 25.91 78.04 44.79 46.09 81.33
  Q 42.93 84.94 37.98 83.28
  Q 37.54 83.13 37.81 82.76
  C 79.56 23.57 146.79 -6.31 218.52 1.29
  C 273.81 7.14 325.12 36.83 356.08 83.29
  A 0.37 0.36 73.7 0 1 355.77 83.86
  Q 334.91 83.50 314.06 83.65
  Q 301.61 83.74 296.06 82.43
  C 282.25 79.17 273.75 70.53 263.10 61.94
  Q 222.27 29.00 169.50 27.39
  Z"
/>
<path fill="#013dba" d="
  M 152.93 119.04
  C 146.42 116.53 141.29 120.02 141.28 127.06
  Q 141.22 162.91 141.29 198.75
  Q 141.30 202.48 142.74 205.91
  Q 142.94 206.39 143.38 206.67
  C 150.35 211.07 156.56 207.64 156.66 199.32
  Q 156.79 188.04 156.75 176.76
  Q 156.74 176.25 157.26 176.25
  L 199.00 176.25
  Q 199.53 176.25 199.54 176.78
  Q 199.66 184.67 198.47 198.24
  C 195.92 227.36 161.03 231.23 138.50 229.21
  C 121.80 227.72 104.92 222.02 100.67 203.99
  Q 98.64 195.42 98.57 186.56
  Q 98.40 163.91 98.55 141.25
  C 98.60 134.28 98.69 125.83 100.99 119.79
  C 108.44 100.22 135.72 96.33 153.59 97.15
  C 165.88 97.71 176.93 100.08 186.80 106.87
  C 194.98 112.49 197.71 119.61 198.68 129.27
  Q 199.95 142.05 199.39 154.88
  A 0.39 0.38 -88.4 0 1 199.01 155.25
  L 157.26 155.25
  Q 156.76 155.25 156.76 154.75
  Q 156.74 140.72 156.70 126.76
  C 156.69 123.70 156.18 120.30 152.93 119.04
  Z"
/>
<path fill="#fc6715" d="
  M 45.85 201.75
  L 76.41 201.75
  A 0.37 0.37 0.0 0 1 76.78 202.12
  L 76.74 226.63
  A 0.37 0.37 0.0 0 1 76.37 227.00
  L 3.12 227.01
  A 0.37 0.37 0.0 0 1 2.75 226.64
  L 2.75 99.87
  A 0.37 0.37 0.0 0 1 3.12 99.50
  L 73.88 99.50
  A 0.37 0.37 0.0 0 1 74.25 99.87
  L 74.25 124.63
  A 0.37 0.37 0.0 0 1 73.88 125.00
  L 45.87 125.00
  A 0.37 0.37 0.0 0 0 45.50 125.37
  L 45.50 148.88
  A 0.37 0.37 0.0 0 0 45.87 149.25
  L 71.88 149.25
  A 0.37 0.37 0.0 0 1 72.25 149.62
  L 72.25 173.13
  A 0.37 0.37 0.0 0 1 71.88 173.50
  L 45.86 173.50
  A 0.37 0.37 0.0 0 0 45.49 173.87
  L 45.48 201.38
  A 0.37 0.37 0.0 0 0 45.85 201.75
  Z"
/>
<rect fill="#013dba" x="225.25" y="99.59" width="42.50" height="127.40" rx="0.32"/>
<path fill="#013dba" d="
  M 368.94 161.18
  C 381.03 163.59 390.42 167.46 390.72 181.55
  Q 391.20 204.04 390.94 226.53
  Q 390.94 227.00 390.47 227.00
  L 352.02 227.00
  Q 351.53 227.00 351.52 226.51
  Q 351.47 206.23 351.45 186.00
  C 351.45 175.71 351.56 168.64 338.75 169.74
  Q 338.24 169.78 338.24 170.30
  L 338.26 226.51
  Q 338.26 227.02 337.74 227.02
  L 295.99 226.99
  Q 295.50 226.99 295.50 226.49
  L 295.50 100.26
  Q 295.50 99.72 296.04 99.72
  Q 321.87 99.75 347.41 99.80
  C 354.25 99.81 365.70 100.65 372.23 102.84
  Q 388.77 108.39 390.66 127.65
  Q 391.78 139.01 389.48 148.00
  C 387.02 157.60 377.63 159.71 369.00 160.30
  A 0.45 0.44 -41.2 0 0 368.94 161.18
  Z
  M 338.17 121.73
  L 338.31 149.49
  A 0.31 0.31 0.0 0 0 338.62 149.80
  L 342.96 149.78
  A 8.57 8.44 -0.3 0 0 351.49 141.30
  L 351.43 129.80
  A 8.57 8.44 -0.3 0 0 342.82 121.40
  L 338.48 121.42
  A 0.31 0.31 0.0 0 0 338.17 121.73
  Z"
/>

<path fill="#fc6715" d="
  M 9.94 232.62
  C 8.44 234.41 6.04 235.93 3.66 235.54
  Q 3.01 235.44 3.30 234.84
  Q 5.21 230.91 9.78 232.11
  Q 10.27 232.23 9.94 232.62
  Z"
/>
<path fill="#fc6715" d="
  M 20.50 241.55
  L 20.50 251.93
  Q 20.50 252.48 20.96 252.80
  Q 22.37 253.77 23.44 252.41
  Q 23.75 252.02 23.75 251.51
  L 23.75 249.37
  Q 23.75 248.66 24.45 248.71
  L 27.63 248.92
  Q 28.12 248.95 28.22 249.44
  C 29.94 257.93 16.18 259.50 16.03 250.94
  Q 15.89 243.89 16.02 241.75
  C 16.42 234.99 29.88 235.49 28.07 243.51
  Q 27.96 244.00 27.46 244.00
  L 24.48 244.00
  Q 23.81 244.00 23.77 243.33
  C 23.66 241.67 23.54 239.51 21.04 240.70
  Q 20.50 240.95 20.50 241.55
  Z"
/>
<path fill="#fc6715" d="
  M 45.7320 251.3907
  A 5.09 5.09 0.0 0 1 40.6331 256.4718
  L 38.5931 256.4682
  A 5.09 5.09 0.0 0 1 33.5120 251.3693
  L 33.5280 242.1693
  A 5.09 5.09 0.0 0 1 38.6269 237.0882
  L 40.6669 237.0918
  A 5.09 5.09 0.0 0 1 45.7480 242.1907
  L 45.7320 251.3907
  Z
  M 41.25 242.02
  A 1.52 1.52 0.0 0 0 39.73 240.50
  L 39.53 240.50
  A 1.52 1.52 0.0 0 0 38.01 242.02
  L 38.01 251.50
  A 1.52 1.52 0.0 0 0 39.53 253.02
  L 39.73 253.02
  A 1.52 1.52 0.0 0 0 41.25 251.50
  L 41.25 242.02
  Z"
/>
<path fill="#fc6715" d="
  M 0.00 255.94
  L 0.00 237.92
  L 9.82 237.64
  Q 10.37 237.62 10.43 238.17
  L 10.69 240.59
  Q 10.77 241.25 10.10 241.25
  L 5.19 241.25
  Q 4.63 241.25 4.61 241.81
  L 4.56 244.00
  Q 4.55 244.70 5.25 244.71
  L 10.00 244.74
  Q 10.50 244.75 10.50 245.25
  L 10.50 247.75
  Q 10.50 248.25 10.00 248.25
  L 5.13 248.25
  Q 4.69 248.25 4.68 248.69
  L 4.61 252.05
  Q 4.60 252.50 5.05 252.50
  L 10.30 252.50
  Q 10.92 252.50 10.90 253.11
  L 10.84 255.60
  Q 10.82 256.18 10.24 256.17
  L 0.00 255.94
  Z"
/>
<path fill="#fc6715" d="
  M 55.68 252.50
  L 60.62 252.50
  A 0.38 0.38 0.0 0 1 61.00 252.88
  L 61.00 255.77
  A 0.38 0.38 0.0 0 1 60.62 256.15
  L 51.13 256.25
  A 0.38 0.38 0.0 0 1 50.75 255.87
  L 50.75 238.02
  A 0.38 0.38 0.0 0 1 51.14 237.64
  L 54.97 237.70
  A 0.38 0.38 0.0 0 1 55.34 238.08
  L 55.30 252.12
  A 0.38 0.38 0.0 0 0 55.68 252.50
  Z"
/>
<path fill="#fc6715" d="
  M 70.33 252.50
  L 75.89 252.50
  A 0.36 0.36 0.0 0 1 76.25 252.86
  L 76.25 255.58
  A 0.36 0.36 0.0 0 1 75.90 255.94
  L 66.10 256.15
  A 0.36 0.36 0.0 0 1 65.73 255.79
  L 65.71 237.86
  A 0.36 0.36 0.0 0 1 66.07 237.50
  L 75.64 237.50
  A 0.36 0.36 0.0 0 1 76.00 237.86
  L 76.00 240.89
  A 0.36 0.36 0.0 0 1 75.64 241.25
  L 70.38 241.25
  A 0.36 0.36 0.0 0 0 70.02 241.60
  L 69.99 244.07
  A 0.36 0.36 0.0 0 0 70.32 244.44
  L 75.48 244.83
  A 0.36 0.36 0.0 0 1 75.81 245.16
  L 75.99 247.87
  A 0.36 0.36 0.0 0 1 75.63 248.25
  L 70.41 248.25
  A 0.36 0.36 0.0 0 0 70.05 248.60
  L 69.97 252.13
  A 0.36 0.36 0.0 0 0 70.33 252.50
  Z"
/>
<path fill="#00189f" d="
  M 181.85 251.30
  C 182.34 255.16 187.92 255.11 186.92 250.60
  Q 186.76 249.84 187.53 249.81
  L 189.22 249.75
  Q 189.81 249.73 189.85 250.32
  C 190.03 253.55 188.39 255.96 185.04 256.23
  C 177.81 256.82 178.52 247.94 179.18 242.53
  C 180.08 235.25 189.86 236.22 189.80 242.27
  Q 189.79 243.00 189.06 243.00
  L 187.55 243.00
  Q 186.98 243.00 187.00 242.43
  C 187.15 237.98 181.98 239.07 181.83 242.32
  Q 181.53 248.80 181.85 251.30
  Z"
/>
<path fill="#00189f" d="
  M 208.40 251.10
  A 5.08 5.08 0.0 0 1 203.32 256.18
  L 201.66 256.18
  A 5.08 5.08 0.0 0 1 196.58 251.10
  L 196.58 242.64
  A 5.08 5.08 0.0 0 1 201.66 237.56
  L 203.32 237.56
  A 5.08 5.08 0.0 0 1 208.40 242.64
  L 208.40 251.10
  Z
  M 205.48 242.38
  A 2.84 2.84 0.0 0 0 202.64 239.54
  L 202.36 239.54
  A 2.84 2.84 0.0 0 0 199.52 242.38
  L 199.52 251.18
  A 2.84 2.84 0.0 0 0 202.36 254.02
  L 202.64 254.02
  A 2.84 2.84 0.0 0 0 205.48 251.18
  L 205.48 242.38
  Z"
/>
<path fill="#00189f" d="
  M 241.15 239.97
  C 237.95 237.89 235.21 241.92 238.18 243.85
  C 240.73 245.51 244.73 247.45 245.13 250.43
  C 246.12 257.99 232.90 258.32 234.12 250.37
  Q 234.18 250.00 234.55 250.00
  L 236.25 250.00
  Q 236.77 250.00 236.74 250.51
  Q 236.56 253.83 239.87 254.20
  A 2.14 2.13 -83.7 0 0 242.23 252.30
  C 242.76 247.41 234.30 247.45 234.02 241.79
  C 233.76 236.51 243.44 235.41 244.85 242.06
  Q 244.99 242.72 244.31 242.73
  L 242.57 242.76
  Q 241.86 242.77 241.79 242.06
  L 241.67 240.82
  Q 241.61 240.27 241.15 239.97
  Z"
/>
<path fill="#00189f" d="
  M 308.26 251.23
  C 308.30 254.87 314.65 255.34 313.41 250.37
  Q 313.26 249.78 313.87 249.77
  L 315.69 249.74
  Q 316.27 249.73 316.30 250.32
  C 316.58 256.82 308.45 258.31 306.15 253.71
  C 305.02 251.45 305.11 242.29 306.25 240.02
  C 308.31 235.94 316.18 236.59 316.36 242.41
  Q 316.38 243.00 315.79 243.00
  L 314.05 243.00
  Q 313.47 243.00 313.49 242.43
  C 313.59 239.87 311.45 238.45 309.44 240.15
  C 307.55 241.74 308.23 248.76 308.26 251.23
  Z"
/>
<path fill="#00189f" d="
  M 360.96 251.25
  A 4.94 4.94 0.0 0 1 356.02 256.19
  L 354.24 256.19
  A 4.94 4.94 0.0 0 1 349.30 251.25
  L 349.30 242.47
  A 4.94 4.94 0.0 0 1 354.24 237.53
  L 356.02 237.53
  A 4.94 4.94 0.0 0 1 360.96 242.47
  L 360.96 251.25
  Z
  M 358.1572 242.4741
  A 2.91 2.91 0.0 0 0 355.2320 239.5794
  L 354.9520 239.5808
  A 2.91 2.91 0.0 0 0 352.0573 242.5060
  L 352.1028 251.2059
  A 2.91 2.91 0.0 0 0 355.0280 254.1006
  L 355.3080 254.0992
  A 2.91 2.91 0.0 0 0 358.2027 251.1740
  L 358.1572 242.4741
  Z"
/>
<path fill="#00189f" d="
  M 91.99 238.43
  A 0.69 0.69 0.0 0 1 92.68 237.74
  L 98.52 237.74
  A 5.12 4.99 -90.0 0 1 103.51 242.86
  L 103.51 250.66
  A 5.12 4.99 -90.0 0 1 98.52 255.78
  L 92.68 255.78
  A 0.69 0.69 0.0 0 1 91.99 255.09
  L 91.99 238.43
  Z
  M 94.76 240.54
  L 94.70 253.14
  A 0.59 0.59 0.0 0 0 95.28 253.74
  L 97.56 253.75
  A 3.49 3.17 -89.7 0 0 100.75 250.28
  L 100.79 243.48
  A 3.49 3.17 -89.7 0 0 97.64 239.97
  L 95.36 239.96
  A 0.59 0.59 0.0 0 0 94.76 240.54
  Z"
/>
<path fill="#00189f" d="
  M 113.92 245.32
  L 119.31 245.22
  A 0.41 0.41 0.0 0 1 119.71 245.51
  L 120.07 246.72
  A 0.41 0.41 0.0 0 1 119.67 247.25
  L 113.91 247.25
  A 0.41 0.41 0.0 0 0 113.50 247.66
  L 113.50 253.34
  A 0.41 0.41 0.0 0 0 113.91 253.75
  L 120.11 253.75
  A 0.41 0.41 0.0 0 1 120.52 254.18
  L 120.46 255.36
  A 0.41 0.41 0.0 0 1 120.05 255.75
  L 111.16 255.75
  A 0.41 0.41 0.0 0 1 110.75 255.34
  L 110.75 238.34
  A 0.41 0.41 0.0 0 1 111.17 237.93
  L 120.03 238.03
  A 0.41 0.41 0.0 0 1 120.43 238.52
  L 120.23 239.61
  A 0.41 0.41 0.0 0 1 119.80 239.94
  L 113.93 239.68
  A 0.41 0.41 0.0 0 0 113.50 240.09
  L 113.50 244.91
  A 0.41 0.41 0.0 0 0 113.92 245.32
  Z"
/>
<path fill="#00189f" d="
  M 139.62 253.75
  L 144.82 253.75
  Q 145.35 253.75 145.76 254.07
  Q 146.69 254.77 145.72 255.46
  Q 145.30 255.75 144.79 255.75
  L 137.00 255.75
  Q 136.25 255.75 136.25 255.00
  L 136.25 238.32
  Q 136.25 237.63 136.93 237.72
  L 138.39 237.89
  Q 139.03 237.96 139.03 238.62
  L 138.99 253.12
  Q 138.98 253.75 139.62 253.75
  Z"
/>
<path fill="#00189f" d="
  M 154.84 251.32
  L 154.03 255.43
  A 0.40 0.40 0.0 0 1 153.64 255.75
  L 151.35 255.75
  A 0.40 0.40 0.0 0 1 150.97 255.25
  L 155.30 238.14
  A 0.40 0.40 0.0 0 1 155.67 237.84
  L 159.22 237.72
  A 0.40 0.40 0.0 0 1 159.63 238.03
  L 163.76 255.26
  A 0.40 0.40 0.0 0 1 163.37 255.75
  L 161.07 255.75
  A 0.40 0.40 0.0 0 1 160.67 255.42
  L 160.00 251.33
  A 0.40 0.40 0.0 0 0 159.60 251.00
  L 155.23 251.00
  A 0.40 0.40 0.0 0 0 154.84 251.32
  Z
  M 159.35 248.32
  C 159.14 247.11 158.19 239.41 157.34 239.47
  Q 156.92 239.50 156.85 239.91
  L 155.44 248.48
  Q 155.36 249.00 155.89 249.00
  L 158.78 249.00
  Q 159.47 249.00 159.35 248.32
  Z"
/>
<path fill="#00189f" d="
  M 218.15 241.43
  A 0.32 0.32 0.0 0 0 217.62 241.69
  L 218.64 255.02
  Q 218.69 255.75 217.97 255.75
  L 216.13 255.75
  Q 215.50 255.75 215.50 255.12
  L 215.50 238.40
  Q 215.50 237.81 216.10 237.85
  L 218.27 238.00
  Q 218.81 238.04 219.01 238.55
  L 224.00 251.44
  A 0.52 0.52 0.0 0 0 225.00 251.21
  L 224.14 238.59
  Q 224.10 238.02 224.67 238.01
  L 226.70 237.98
  Q 227.25 237.97 227.25 238.51
  L 227.25 255.13
  Q 227.25 255.75 226.62 255.75
  L 224.75 255.75
  Q 224.18 255.75 223.93 255.23
  Q 220.91 248.79 218.58 242.11
  Q 218.43 241.68 218.15 241.43
  Z"
/>
<path fill="#00189f" d="
  M 254.32 239.70
  L 251.53 239.97
  Q 250.87 240.04 250.67 239.41
  L 250.46 238.72
  Q 250.21 237.92 251.05 237.90
  L 261.16 237.70
  Q 261.71 237.69 261.97 238.17
  C 263.38 240.66 259.28 239.99 258.24 240.01
  Q 257.75 240.02 257.75 240.51
  L 257.75 255.12
  Q 257.75 255.75 257.12 255.75
  L 255.50 255.75
  Q 255.00 255.75 255.00 255.25
  L 255.00 240.32
  Q 255.00 239.64 254.32 239.70
  Z"
/>
<path fill="#00189f" d="
  M 276.98 247.01
  Q 278.14 247.09 278.83 247.97
  Q 279.10 248.32 279.14 248.77
  L 279.69 255.26
  Q 279.73 255.75 279.24 255.75
  L 277.55 255.75
  Q 276.85 255.75 276.80 255.05
  L 276.43 249.55
  Q 276.39 248.94 275.88 248.60
  Q 273.91 247.29 271.33 247.58
  Q 270.75 247.64 270.75 248.22
  L 270.75 255.12
  Q 270.75 255.75 270.13 255.75
  L 268.86 255.75
  A 0.89 0.88 -90.0 0 1 267.98 254.86
  L 267.96 238.19
  Q 267.96 237.75 268.40 237.75
  C 272.09 237.75 282.70 236.97 278.89 244.61
  Q 278.65 245.09 278.20 245.38
  L 276.79 246.29
  Q 275.80 246.94 276.98 247.01
  Z
  M 270.74 240.47
  L 270.60 245.09
  A 0.69 0.69 0.0 0 0 271.27 245.80
  L 273.81 245.88
  A 2.84 2.63 -88.2 0 0 276.52 243.12
  L 276.53 242.80
  A 2.84 2.63 -88.2 0 0 273.99 239.88
  L 271.46 239.80
  A 0.69 0.69 0.0 0 0 270.74 240.47
  Z"
/>
<path fill="#00189f" d="
  M 294.33 253.67
  A 1.85 1.83 -10.8 0 0 295.50 251.96
  L 295.50 238.37
  Q 295.50 237.75 296.12 237.75
  L 297.78 237.75
  Q 298.43 237.75 298.41 238.40
  Q 298.14 244.76 298.25 251.09
  C 298.31 254.13 297.41 255.34 294.53 255.96
  C 283.69 258.25 286.76 244.38 286.75 238.45
  Q 286.75 237.75 287.45 237.75
  L 289.02 237.75
  Q 289.61 237.75 289.59 238.34
  Q 289.41 244.16 289.50 249.96
  C 289.55 253.11 291.00 254.98 294.33 253.67
  Z"
/>
<path fill="#00189f" d="
  M 325.81 240.01
  Q 324.24 239.52 322.62 240.11
  Q 321.75 240.43 321.75 239.50
  L 321.75 238.49
  Q 321.75 237.97 322.27 237.96
  L 332.68 237.71
  Q 333.21 237.70 333.23 238.24
  L 333.26 239.32
  Q 333.27 239.91 332.68 239.92
  L 329.52 239.95
  Q 329.00 239.95 329.00 240.48
  L 329.00 255.25
  Q 329.00 255.75 328.50 255.75
  L 326.63 255.75
  Q 326.00 255.75 326.00 255.13
  L 326.00 240.27
  A 0.27 0.27 0.0 0 0 325.81 240.01
  Z"
/>
<rect fill="#00189f" x="339.22" y="237.81" width="2.80" height="17.90" rx="0.46"/>
<path fill="#00189f" d="
  M 370.42 242.06
  L 371.12 255.02
  Q 371.15 255.75 370.42 255.75
  L 368.87 255.75
  Q 368.25 255.75 368.25 255.12
  L 368.25 238.49
  Q 368.25 237.92 368.81 237.79
  C 370.43 237.44 371.37 237.91 372.03 239.47
  Q 374.63 245.61 376.62 251.64
  A 0.53 0.53 0.0 0 0 377.66 251.44
  L 376.90 238.45
  Q 376.85 237.75 377.55 237.75
  L 379.12 237.75
  Q 379.73 237.75 379.74 238.37
  L 379.78 254.87
  A 0.71 0.69 -14.2 0 1 379.40 255.49
  Q 378.16 256.12 377.18 255.61
  C 375.46 254.71 372.15 244.23 371.41 241.89
  A 0.51 0.50 35.1 0 0 370.42 242.06
  Z"
/>


<path fill="#00189f" d="
  M 390.44 256.01
  Q 388.66 255.69 389.03 253.84
  Q 389.12 253.40 389.57 253.29
  L 390.60 253.03
  Q 391.34 252.84 391.43 253.60
  L 391.79 256.97
  Q 391.83 257.37 391.59 257.69
  Q 390.91 258.58 389.88 259.05
  Q 388.58 259.64 389.45 258.51
  L 390.76 256.82
  Q 391.27 256.15 390.44 256.01
  Z"
/>
<path fill="#00189f" d="
  M 315.27 264.59
  C 315.89 263.27 317.28 261.63 319.01 262.44
  Q 319.65 262.75 319.08 263.18
  L 316.22 265.36
  A 0.63 0.63 0.0 0 1 315.27 264.59
  Z"
/>
<path fill="#00189f" d="
  M 36.69 272.01
  C 35.53 266.97 30.52 269.74 31.75 272.16
  C 32.52 273.68 35.40 275.20 36.85 276.12
  C 43.14 280.10 38.79 287.64 32.16 285.62
  Q 28.37 284.46 28.76 280.24
  Q 28.81 279.75 29.30 279.75
  L 31.24 279.75
  Q 31.91 279.75 31.73 280.39
  C 30.71 284.10 35.42 285.18 36.94 282.18
  C 39.11 277.90 25.14 275.82 29.34 269.35
  C 31.71 265.70 39.43 266.51 39.31 271.93
  Q 39.30 272.50 38.73 272.50
  L 37.30 272.50
  Q 36.80 272.50 36.69 272.01
  Z"
/>
<path fill="#00189f" d="
  M 122.26 271.82
  C 122.37 269.10 119.32 268.36 117.76 270.13
  A 2.12 2.12 0.0 0 0 118.15 273.28
  Q 120.43 274.84 122.69 276.30
  C 128.52 280.05 124.91 286.96 118.49 285.74
  Q 113.96 284.88 114.55 280.18
  Q 114.61 279.75 115.04 279.75
  L 116.77 279.75
  Q 117.36 279.75 117.27 280.34
  C 116.59 284.64 122.39 285.16 122.75 281.41
  C 122.99 278.96 117.37 276.21 116.25 275.26
  C 113.37 272.82 113.89 268.78 117.54 267.51
  C 120.65 266.43 125.17 267.78 124.93 271.90
  Q 124.89 272.53 124.26 272.51
  L 122.87 272.47
  Q 122.23 272.46 122.26 271.82
  Z"
/>
<path fill="#00189f" d="
  M 179.75 269.42
  C 173.63 267.78 175.21 282.43 177.45 283.57
  C 179.78 284.75 181.23 282.51 180.98 280.38
  Q 180.90 279.75 181.54 279.75
  L 183.28 279.75
  Q 183.99 279.75 183.91 280.46
  Q 183.08 287.53 175.82 285.38
  C 172.69 284.45 172.57 278.79 172.75 275.77
  C 173.04 270.97 173.15 266.96 179.00 267.23
  Q 183.61 267.45 183.74 271.99
  Q 183.76 272.50 183.24 272.50
  L 181.60 272.50
  Q 181.17 272.50 181.06 272.09
  L 180.50 270.15
  Q 180.33 269.57 179.75 269.42
  Z"
/>
<path fill="#00189f" d="
  M 251.51 271.74
  C 251.71 268.88 248.89 268.76 247.04 269.93
  A 1.68 1.67 48.7 0 0 246.87 272.63
  C 250.10 275.32 256.44 277.51 254.44 282.72
  C 252.47 287.84 243.12 286.79 243.78 280.20
  Q 243.83 279.75 244.28 279.75
  L 246.01 279.75
  Q 246.61 279.75 246.53 280.34
  C 245.73 285.96 254.28 284.16 251.55 279.72
  C 249.64 276.61 242.26 275.83 243.93 270.31
  C 245.36 265.61 253.81 266.06 254.42 271.79
  Q 254.49 272.50 253.78 272.50
  L 252.22 272.50
  Q 251.45 272.50 251.51 271.74
  Z"
/>
<path fill="#00189f" d="
  M 331.95 271.67
  C 332.64 268.71 327.53 268.30 327.11 271.27
  C 326.69 274.31 334.98 275.74 335.35 280.61
  C 335.88 287.66 323.33 287.86 324.36 280.14
  Q 324.41 279.75 324.81 279.75
  L 326.71 279.75
  Q 327.33 279.75 327.15 280.34
  C 326.27 283.25 329.47 284.56 331.71 283.26
  Q 332.14 283.00 332.29 282.52
  C 333.90 277.37 324.79 277.37 324.30 271.76
  C 323.83 266.29 334.03 264.84 334.96 271.90
  Q 335.05 272.56 334.39 272.52
  L 332.52 272.43
  Q 331.78 272.39 331.95 271.67
  Z"
/>
<path fill="#00189f" d="
  M 0.89 267.95
  A 0.27 0.27 0.0 0 1 1.16 267.68
  L 7.48 267.67
  A 5.35 4.95 89.9 0 1 12.44 273.01
  L 12.46 280.11
  A 5.35 4.95 89.9 0 1 7.52 285.47
  L 1.20 285.48
  A 0.27 0.27 0.0 0 1 0.93 285.21
  L 0.89 267.95
  Z
  M 3.70 269.92
  L 3.64 283.08
  A 0.46 0.46 0.0 0 0 4.09 283.55
  L 6.02 283.56
  A 3.80 3.51 -89.7 0 0 9.55 279.78
  L 9.59 273.30
  A 3.80 3.51 -89.7 0 0 6.10 269.48
  L 4.17 269.47
  A 0.46 0.46 0.0 0 0 3.70 269.92
  Z"
/>
<path fill="#00189f" d="
  M 19.15 269.85
  L 19.29 274.67
  A 0.34 0.34 0.0 0 0 19.63 275.00
  L 24.99 275.00
  A 0.34 0.34 0.0 0 1 25.32 275.27
  L 25.58 276.59
  A 0.34 0.34 0.0 0 1 25.25 277.00
  L 19.65 277.00
  A 0.34 0.34 0.0 0 0 19.31 277.33
  L 19.11 283.15
  A 0.34 0.34 0.0 0 0 19.45 283.50
  L 25.53 283.50
  A 0.34 0.34 0.0 0 1 25.87 283.79
  L 26.06 285.11
  A 0.34 0.34 0.0 0 1 25.72 285.50
  L 16.59 285.50
  A 0.34 0.34 0.0 0 1 16.25 285.16
  L 16.25 268.09
  A 0.34 0.34 0.0 0 1 16.59 267.75
  L 25.66 267.75
  A 0.34 0.34 0.0 0 1 26.00 268.09
  L 26.00 269.16
  A 0.34 0.34 0.0 0 1 25.66 269.50
  L 19.49 269.50
  A 0.34 0.34 0.0 0 0 19.15 269.85
  Z"
/>
<rect fill="#00189f" x="49.70" y="267.75" width="2.80" height="17.72" rx="0.26"/>
<path fill="#00189f" d="
  M 58.72 271.40
  L 59.48 284.88
  Q 59.51 285.52 58.87 285.51
  L 57.01 285.48
  Q 56.48 285.47 56.49 284.95
  L 56.65 268.18
  Q 56.65 267.75 57.07 267.75
  L 59.19 267.75
  Q 59.79 267.75 60.01 268.31
  L 65.12 281.43
  A 0.46 0.46 0.0 0 0 66.01 281.23
  L 65.19 268.30
  Q 65.15 267.75 65.70 267.75
  L 67.63 267.75
  Q 68.02 267.75 68.02 268.13
  L 68.15 284.87
  Q 68.15 285.29 67.76 285.42
  C 66.17 285.98 65.11 285.60 64.42 283.99
  Q 61.75 277.74 59.54 271.24
  A 0.42 0.42 0.0 0 0 58.72 271.40
  Z"
/>
<path fill="#00189f" d="
  M 75.20 269.85
  L 75.27 274.67
  A 0.34 0.34 0.0 0 0 75.61 275.00
  L 81.08 275.00
  A 0.34 0.34 0.0 0 1 81.41 275.23
  L 81.84 276.55
  A 0.34 0.34 0.0 0 1 81.52 277.00
  L 75.59 277.00
  A 0.34 0.34 0.0 0 0 75.25 277.34
  L 75.25 285.16
  A 0.34 0.34 0.0 0 1 74.91 285.50
  L 72.81 285.50
  A 0.34 0.34 0.0 0 1 72.47 285.16
  L 72.47 268.09
  A 0.34 0.34 0.0 0 1 72.81 267.75
  L 81.66 267.75
  A 0.34 0.34 0.0 0 1 82.00 268.09
  L 82.00 269.16
  A 0.34 0.34 0.0 0 1 81.66 269.50
  L 75.54 269.50
  A 0.34 0.34 0.0 0 0 75.20 269.85
  Z"
/>
<path fill="#00189f" d="
  M 93.89 276.59
  C 97.71 277.39 96.22 282.00 96.91 284.90
  Q 97.06 285.50 96.44 285.50
  L 94.45 285.50
  Q 93.79 285.50 93.77 284.84
  C 93.64 281.09 94.50 275.53 88.13 277.78
  Q 87.69 277.93 87.70 278.39
  L 87.87 284.93
  Q 87.88 285.41 87.40 285.43
  L 85.65 285.52
  Q 85.00 285.56 85.00 284.90
  L 85.00 268.30
  Q 85.00 267.82 85.47 267.80
  C 89.27 267.62 96.84 266.34 96.65 272.19
  C 96.59 274.20 95.60 275.14 93.83 275.82
  Q 92.56 276.31 93.89 276.59
  Z
  M 87.75 269.86
  L 87.75 275.08
  A 0.40 0.40 0.0 0 0 88.15 275.48
  L 90.74 275.48
  A 3.01 2.87 0.0 0 0 93.75 272.61
  L 93.75 272.33
  A 3.01 2.87 0.0 0 0 90.74 269.46
  L 88.15 269.46
  A 0.40 0.40 0.0 0 0 87.75 269.86
  Z"
/>
<path fill="#00189f" d="
  M 103.14 281.07
  L 102.32 285.18
  A 0.40 0.40 0.0 0 1 101.93 285.50
  L 99.73 285.50
  A 0.40 0.40 0.0 0 1 99.35 285.00
  L 103.67 268.05
  A 0.40 0.40 0.0 0 1 104.06 267.75
  L 107.65 267.75
  A 0.40 0.40 0.0 0 1 108.03 268.06
  L 112.16 285.01
  A 0.40 0.40 0.0 0 1 111.77 285.50
  L 109.42 285.50
  A 0.40 0.40 0.0 0 1 109.03 285.16
  L 108.39 281.09
  A 0.40 0.40 0.0 0 0 108.00 280.75
  L 103.53 280.75
  A 0.40 0.40 0.0 0 0 103.14 281.07
  Z
  M 103.80 278.21
  A 0.44 0.44 0.0 0 0 104.22 278.73
  L 107.26 278.77
  A 0.44 0.44 0.0 0 0 107.70 278.26
  L 106.29 269.40
  A 0.44 0.44 0.0 0 0 105.42 269.39
  L 103.80 278.21
  Z"
/>
<path fill="#00189f" d="
  M 131.64 269.44
  L 128.14 269.65
  A 0.34 0.34 0.0 0 1 127.78 269.32
  L 127.73 268.10
  A 0.34 0.34 0.0 0 1 128.07 267.75
  L 138.91 267.75
  A 0.34 0.34 0.0 0 1 139.25 268.09
  L 139.25 269.16
  A 0.34 0.34 0.0 0 1 138.91 269.50
  L 135.05 269.50
  A 0.34 0.34 0.0 0 0 134.71 269.84
  L 134.83 285.16
  A 0.34 0.34 0.0 0 1 134.49 285.50
  L 132.34 285.50
  A 0.34 0.34 0.0 0 1 132.00 285.16
  L 132.00 269.78
  A 0.34 0.34 0.0 0 0 131.64 269.44
  Z"
/>
<path fill="#00189f" d="
  M 150.67 276.62
  Q 152.25 276.84 153.06 278.22
  Q 153.34 278.68 153.28 279.22
  Q 152.99 282.08 153.75 284.82
  Q 153.94 285.50 153.23 285.50
  L 151.15 285.50
  Q 150.55 285.50 150.53 284.90
  L 150.43 279.34
  Q 150.42 278.69 149.88 278.33
  Q 147.79 276.95 145.17 277.41
  A 0.88 0.88 0.0 0 0 144.44 278.31
  L 144.67 284.90
  Q 144.70 285.50 144.10 285.50
  L 142.50 285.50
  Q 141.75 285.50 141.75 284.75
  L 141.75 268.26
  Q 141.75 267.76 142.25 267.76
  C 145.63 267.74 156.39 266.36 153.00 273.95
  Q 152.80 274.41 152.43 274.75
  Q 151.59 275.52 150.49 275.75
  Q 148.06 276.25 150.67 276.62
  Z
  M 144.48 270.28
  L 144.48 274.70
  A 0.81 0.81 0.0 0 0 145.30 275.50
  L 147.70 275.50
  A 2.83 2.74 -0.1 0 0 150.52 272.75
  L 150.52 272.19
  A 2.83 2.74 -0.1 0 0 147.68 269.46
  L 145.28 269.46
  A 0.81 0.81 0.0 0 0 144.48 270.28
  Z"
/>
<path fill="#00189f" d="
  M 165.82 282.76
  A 1.43 1.42 -22.2 0 0 166.25 281.74
  L 166.25 268.25
  Q 166.25 267.75 166.75 267.75
  L 168.53 267.75
  Q 169.17 267.75 169.14 268.39
  Q 168.79 276.60 169.01 280.49
  C 169.43 287.89 157.66 287.64 157.57 281.25
  Q 157.48 274.76 157.50 268.26
  Q 157.50 267.75 158.02 267.75
  L 159.67 267.75
  Q 160.27 267.75 160.27 268.35
  L 160.24 281.44
  A 2.22 2.21 -80.3 0 0 161.72 283.53
  Q 164.14 284.37 165.82 282.76
  Z"
/>
<path fill="#00189f" d="
  M 189.71 269.53
  C 188.72 269.42 185.38 270.17 186.04 268.20
  Q 186.20 267.75 186.68 267.75
  L 196.87 267.75
  Q 197.50 267.75 197.50 268.38
  L 197.50 268.87
  Q 197.50 269.49 196.88 269.49
  L 193.62 269.52
  Q 192.95 269.52 192.96 270.19
  L 193.09 285.08
  Q 193.09 285.50 192.67 285.50
  L 190.87 285.50
  Q 190.23 285.50 190.24 284.87
  L 190.28 270.18
  Q 190.28 269.60 189.71 269.53
  Z"
/>
<path fill="#00189f" d="
  M 204.44 283.54
  C 211.01 287.01 208.97 271.13 208.93 268.55
  Q 208.92 267.75 209.72 267.75
  L 211.20 267.75
  Q 211.63 267.75 211.63 268.17
  Q 211.83 279.60 211.50 282.49
  C 211.03 286.72 202.12 287.20 200.57 282.97
  C 199.36 279.66 200.34 272.37 200.08 268.42
  Q 200.03 267.75 200.71 267.75
  L 202.28 267.75
  Q 202.91 267.75 202.88 268.39
  C 202.75 271.02 201.75 282.12 204.44 283.54
  Z"
/>
<path fill="#00189f" d="
  M 224.61 276.46
  L 226.60 277.54
  Q 227.08 277.79 227.11 278.34
  L 227.53 285.11
  Q 227.55 285.50 227.16 285.50
  L 225.05 285.50
  Q 224.55 285.50 224.53 285.00
  C 224.35 280.16 225.85 277.45 219.06 277.22
  Q 218.45 277.20 218.46 277.81
  L 218.58 284.96
  Q 218.59 285.50 218.05 285.50
  L 216.24 285.50
  Q 215.73 285.50 215.73 284.99
  L 215.73 268.18
  Q 215.73 267.76 216.15 267.76
  C 220.08 267.73 230.12 266.21 226.83 274.30
  Q 226.65 274.75 226.21 274.96
  L 224.62 275.74
  Q 223.91 276.08 224.61 276.46
  Z
  M 218.49 269.89
  L 218.49 275.11
  A 0.40 0.40 0.0 0 0 218.90 275.50
  L 221.72 275.50
  A 2.87 2.80 89.9 0 0 224.51 272.62
  L 224.51 272.34
  A 2.87 2.80 89.9 0 0 221.70 269.48
  L 218.88 269.48
  A 0.40 0.40 0.0 0 0 218.49 269.89
  Z"
/>
<path fill="#00189f" d="
  M 234.00 277.62
  L 234.00 283.00
  Q 234.00 283.50 234.50 283.50
  L 240.37 283.50
  Q 241.00 283.50 241.00 284.13
  L 241.00 284.87
  Q 241.00 285.50 240.38 285.50
  L 231.75 285.50
  A 0.51 0.51 0.0 0 1 231.24 284.99
  L 231.31 268.22
  Q 231.31 267.75 231.78 267.75
  L 240.44 267.75
  Q 240.84 267.75 240.95 268.13
  C 241.64 270.55 235.96 269.40 234.53 269.62
  Q 234.00 269.70 234.00 270.24
  L 234.00 274.50
  Q 234.00 275.00 234.50 275.00
  L 239.78 275.00
  Q 240.65 275.00 240.45 275.85
  L 240.29 276.54
  Q 240.19 277.00 239.72 277.00
  L 234.63 277.00
  Q 234.00 277.00 234.00 277.62
  Z"
/>
<path fill="#00189f" d="
  M 267.25 277.72
  L 267.25 283.00
  Q 267.25 283.50 267.75 283.50
  L 273.47 283.50
  Q 273.95 283.50 274.02 283.97
  L 274.16 284.91
  Q 274.25 285.50 273.65 285.50
  L 265.00 285.50
  Q 264.50 285.50 264.50 285.00
  L 264.50 268.25
  Q 264.50 267.75 265.00 267.75
  L 273.37 267.75
  Q 274.00 267.75 274.00 268.37
  L 274.00 268.97
  Q 274.00 269.51 273.46 269.51
  L 267.88 269.50
  Q 267.25 269.49 267.25 270.12
  L 267.25 274.50
  Q 267.25 275.00 267.75 275.00
  L 272.74 275.00
  Q 273.20 275.00 273.37 275.43
  C 274.35 277.91 269.15 276.93 267.84 277.06
  Q 267.25 277.12 267.25 277.72
  Z"
/>
<path fill="#00189f" d="
  M 280.11 269.45
  L 276.53 269.63
  A 0.41 0.41 0.0 0 1 276.10 269.28
  L 275.95 268.22
  A 0.41 0.41 0.0 0 1 276.36 267.75
  L 287.14 267.75
  A 0.41 0.41 0.0 0 1 287.55 268.22
  L 287.40 269.28
  A 0.41 0.41 0.0 0 1 286.97 269.64
  L 283.64 269.45
  A 0.41 0.41 0.0 0 0 283.20 269.86
  L 283.27 285.09
  A 0.41 0.41 0.0 0 1 282.86 285.50
  L 280.82 285.50
  A 0.41 0.41 0.0 0 1 280.41 285.09
  L 280.54 269.86
  A 0.41 0.41 0.0 0 0 280.11 269.45
  Z"
/>
<path fill="#00189f" d="
  M 305.31 276.55
  L 307.09 277.49
  Q 307.58 277.75 307.61 278.30
  L 308.03 285.11
  Q 308.05 285.51 307.65 285.51
  L 305.81 285.48
  Q 305.09 285.47 305.06 284.75
  L 304.87 279.19
  Q 304.85 278.64 304.40 278.32
  Q 302.22 276.81 299.40 277.71
  Q 298.95 277.86 298.96 278.33
  L 299.09 284.95
  Q 299.10 285.50 298.56 285.50
  L 296.86 285.50
  Q 296.22 285.50 296.22 284.86
  L 296.26 268.24
  Q 296.26 267.75 296.75 267.75
  C 300.89 267.76 310.39 266.15 307.39 274.29
  Q 307.22 274.76 306.78 274.98
  L 305.31 275.72
  Q 304.51 276.13 305.31 276.55
  Z
  M 298.99 269.88
  L 298.95 275.08
  A 0.42 0.42 0.0 0 0 299.37 275.50
  L 302.20 275.52
  A 2.79 2.69 0.4 0 0 305.01 272.85
  L 305.01 272.19
  A 2.79 2.69 0.4 0 0 302.24 269.48
  L 299.41 269.46
  A 0.42 0.42 0.0 0 0 298.99 269.88
  Z"
/>
<path fill="#00189f" d="
  M 315.13 275.22
  L 320.02 274.93
  Q 320.66 274.89 320.81 275.51
  L 320.98 276.27
  Q 321.15 277.00 320.40 277.00
  L 315.13 277.00
  Q 314.50 277.00 314.50 277.62
  L 314.50 282.87
  Q 314.50 283.50 315.12 283.50
  L 320.87 283.50
  Q 321.50 283.50 321.50 284.12
  L 321.50 284.87
  Q 321.50 285.50 320.88 285.50
  L 312.44 285.50
  A 0.55 0.55 0.0 0 1 311.89 284.94
  L 311.98 268.13
  Q 311.98 267.75 312.37 267.75
  L 320.82 267.75
  Q 321.31 267.75 321.46 268.21
  C 322.13 270.27 316.09 269.49 314.98 269.55
  Q 314.50 269.58 314.50 270.06
  L 314.50 274.63
  Q 314.50 275.26 315.13 275.22
  Z"
/>
<path fill="#00189f" d="
  M 342.40 275.12
  C 343.41 274.99 348.72 274.22 347.97 276.50
  Q 347.81 277.00 347.28 277.00
  L 342.40 277.00
  Q 341.79 277.00 341.76 277.61
  L 341.53 283.01
  Q 341.51 283.50 342.00 283.50
  L 347.75 283.50
  Q 348.25 283.50 348.25 284.00
  L 348.25 284.87
  Q 348.25 285.50 347.62 285.50
  L 339.75 285.50
  A 0.76 0.75 0.0 0 1 338.99 284.75
  L 338.89 268.31
  Q 338.89 267.75 339.44 267.75
  L 348.08 267.75
  Q 348.69 267.75 348.53 268.34
  L 348.34 269.08
  Q 348.21 269.59 347.69 269.58
  L 342.34 269.47
  Q 341.64 269.46 341.66 270.15
  L 341.79 274.59
  Q 341.81 275.19 342.40 275.12
  Z"
/>
<path fill="#00189f" d="
  M 354.20 281.03
  L 353.42 285.22
  A 0.34 0.34 0.0 0 1 353.09 285.50
  L 350.68 285.50
  A 0.34 0.34 0.0 0 1 350.35 285.08
  L 354.70 268.01
  A 0.34 0.34 0.0 0 1 355.03 267.75
  L 358.74 267.75
  A 0.34 0.34 0.0 0 1 359.07 268.01
  L 363.26 285.08
  A 0.34 0.34 0.0 0 1 362.93 285.50
  L 360.42 285.50
  A 0.34 0.34 0.0 0 1 360.08 285.21
  L 359.42 281.04
  A 0.34 0.34 0.0 0 0 359.08 280.75
  L 354.53 280.75
  A 0.34 0.34 0.0 0 0 354.20 281.03
  Z
  M 354.88 278.21
  A 0.44 0.44 0.0 0 0 355.31 278.73
  L 358.28 278.77
  A 0.44 0.44 0.0 0 0 358.72 278.26
  L 357.36 269.23
  A 0.44 0.44 0.0 0 0 356.49 269.21
  L 354.88 278.21
  Z"
/>
<path fill="#00189f" d="
  M 373.54 283.39
  A 2.05 2.04 -12.0 0 0 374.76 281.52
  L 374.73 268.35
  Q 374.73 267.75 375.33 267.75
  L 377.22 267.75
  Q 377.71 267.75 377.68 268.23
  Q 377.49 272.62 377.51 281.24
  C 377.52 287.55 365.44 288.08 366.00 280.25
  Q 366.22 277.20 365.87 268.37
  Q 365.85 267.75 366.47 267.75
  L 368.46 267.75
  Q 368.91 267.75 368.89 268.20
  C 368.72 271.23 366.45 286.49 373.54 283.39
  Z"
/>
<path fill="#00189f" d="
  M 387.13 273.99
  L 389.39 267.96
  A 0.33 0.33 0.0 0 1 389.70 267.75
  L 392.30 267.75
  A 0.33 0.33 0.0 0 1 392.59 268.23
  L 388.30 276.31
  A 0.33 0.33 0.0 0 0 388.31 276.63
  L 392.91 285.01
  A 0.33 0.33 0.0 0 1 392.62 285.50
  L 389.88 285.50
  A 0.33 0.33 0.0 0 1 389.57 285.29
  L 387.01 278.70
  A 0.33 0.33 0.0 0 0 386.40 278.68
  L 383.52 285.30
  A 0.33 0.33 0.0 0 1 383.21 285.50
  L 380.78 285.50
  A 0.33 0.33 0.0 0 1 380.49 285.02
  L 384.96 276.55
  A 0.33 0.33 0.0 0 0 384.96 276.25
  L 380.75 268.23
  A 0.33 0.33 0.0 0 1 381.05 267.75
  L 383.56 267.75
  A 0.33 0.33 0.0 0 1 383.87 267.95
  L 386.52 274.01
  A 0.33 0.33 0.0 0 0 387.13 273.99
  Z"
/>





<path fill="#013dba" d="
  M 196.69 383.00
  L 192.44 383.00
  C 129.26 382.21 73.13 351.06 37.24 299.86
  A 0.39 0.39 0.0 0 1 37.56 299.25
  Q 60.27 299.25 83.15 299.25
  Q 94.10 299.25 98.77 300.30
  C 108.72 302.55 116.45 308.37 124.13 315.26
  Q 174.98 360.89 244.76 355.04
  C 285.15 351.65 320.08 332.65 346.82 302.55
  Q 350.59 298.31 356.19 299.91
  Q 356.53 300.01 356.33 300.30
  C 317.36 354.24 263.58 382.26 196.69 383.00
  Z"
/>
</svg>
